<svg width="14" height="14" viewBox="0 0 14 14" fill="none" xmlns="http://www.w3.org/2000/svg">
<path d="M9.23333 9.83333L10.0833 8.98333L7.6 6.5V3H6.4V7L9.23333 9.83333ZM7 13.4C6.12222 13.4 5.29444 13.2333 4.51667 12.9C3.73889 12.5667 3.05556 12.1111 2.46667 11.5333C1.88889 10.9444 1.43333 10.2611 1.1 9.48333C0.766667 8.70556 0.6 7.87778 0.6 7C0.6 6.11111 0.766667 5.27778 1.1 4.5C1.43333 3.72222 1.88889 3.04444 2.46667 2.46667C3.05556 1.88889 3.73889 1.43333 4.51667 1.1C5.29444 0.766666 6.12222 0.599999 7 0.599999C7.88889 0.599999 8.72222 0.766666 9.5 1.1C10.2778 1.43333 10.9556 1.88889 11.5333 2.46667C12.1111 3.04444 12.5667 3.72222 12.9 4.5C13.2333 5.27778 13.4 6.11111 13.4 7C13.4 7.87778 13.2333 8.70556 12.9 9.48333C12.5667 10.2611 12.1111 10.9444 11.5333 11.5333C10.9556 12.1111 10.2778 12.5667 9.5 12.9C8.72222 13.2333 7.88889 13.4 7 13.4ZM7 12.2C8.44444 12.2 9.67222 11.6944 10.6833 10.6833C11.6944 9.66111 12.2 8.43333 12.2 7C12.2 5.55556 11.6944 4.32778 10.6833 3.31667C9.67222 2.30555 8.44444 1.8 7 1.8C5.56667 1.8 4.33889 2.30555 3.31667 3.31667C2.30556 4.32778 1.8 5.55556 1.8 7C1.8 8.43333 2.30556 9.66111 3.31667 10.6833C4.33889 11.6944 5.56667 12.2 7 12.2Z" fill="#344054"/>
</svg>
