<svg width="12" height="14" viewBox="0 0 12 14" fill="none" xmlns="http://www.w3.org/2000/svg">
<path d="M6 7C6.33333 7 6.61667 6.88333 6.85 6.65C7.08333 6.41667 7.2 6.13333 7.2 5.8C7.2 5.46667 7.08333 5.18333 6.85 4.95C6.61667 4.71667 6.33333 4.6 6 4.6C5.66667 4.6 5.38333 4.71667 5.15 4.95C4.91667 5.18333 4.8 5.46667 4.8 5.8C4.8 6.13333 4.91667 6.41667 5.15 6.65C5.38333 6.88333 5.66667 7 6 7ZM6 11.8167C7.32222 10.6278 8.31667 9.53333 8.98333 8.53333C9.66111 7.53333 10 6.63889 10 5.85C10 4.68333 9.61667 3.71667 8.85 2.95C8.09444 2.18333 7.14444 1.8 6 1.8C4.85556 1.8 3.9 2.18333 3.13333 2.95C2.37778 3.71667 2 4.68333 2 5.85C2 6.63889 2.33333 7.53333 3 8.53333C3.67778 9.53333 4.67778 10.6278 6 11.8167ZM6 13.4C4.25556 11.9444 2.95 10.5944 2.08333 9.35C1.22778 8.09444 0.8 6.92778 0.8 5.85C0.8 4.36111 1.29444 3.11667 2.28333 2.11667C3.27222 1.10555 4.50556 0.599999 5.98333 0.599999C7.47222 0.599999 8.71111 1.10555 9.7 2.11667C10.7 3.11667 11.2 4.36111 11.2 5.85C11.2 6.92778 10.7722 8.08889 9.91667 9.33333C9.06111 10.5778 7.75556 11.9333 6 13.4Z" fill="#344054"/>
</svg>
