<svg width="190" height="38" viewBox="0 0 190 38" fill="none" xmlns="http://www.w3.org/2000/svg">
<g clip-path="url(#clip0_304_994)">
<path fill-rule="evenodd" clip-rule="evenodd" d="M40.5891 13.6334C39.1323 11.3354 37.1386 10.081 34.0633 9.45185C34.0353 7.15559 33.3198 5.78756 32.606 4.62781C30.1657 0.662287 24.8015 -0.195798 21.2748 1.93435L13.7589 6.5996L4.76303 12.1393L4.75184 12.1221C0.885705 14.5014 -1.68412 19.1929 1.3039 24.1125C3.55276 27.7656 8.90409 29.8428 13.2999 27.096C14.5777 26.3085 16.2483 26.1617 17.3742 27.9881C18.3427 29.4899 17.607 31.1596 16.0099 31.9755L19.2832 37.2239C23.4604 34.7357 25.6611 29.5157 22.7759 24.8277C19.926 20.1999 14.1083 19.7515 10.5967 21.9578C9.31928 22.7453 7.30919 22.3455 6.50378 21.0373C5.46647 19.282 6.32007 17.8735 7.71964 17.0115L7.71233 16.9999L16.6359 11.5033L23.8274 7.17582C27.3046 5.03362 30.4157 9.67907 26.7711 11.8832L24.9585 13.0404L27.9272 17.8597L31.1467 15.9176C34.3472 13.9458 37.4045 18.4983 33.9776 20.6513L25.5312 25.854L28.6478 30.9156L38.0451 25.2111C40.5762 23.6524 43.4541 18.2208 40.5891 13.6334Z" fill="#FF470B"/>
<path d="M180.945 28.2418C180.797 28.037 180.731 27.7736 180.746 27.4517C180.76 27.1298 180.953 26.8518 181.323 26.6177C181.56 26.4714 181.811 26.4129 182.078 26.4422C182.344 26.4568 182.603 26.5885 182.855 26.8372C183.284 27.2615 183.735 27.5907 184.209 27.8248C184.683 28.0589 185.275 28.176 185.985 28.176C186.207 28.1613 186.451 28.1321 186.718 28.0882C186.984 28.0297 187.213 27.9126 187.406 27.737C187.613 27.5468 187.717 27.2615 187.717 26.8811C187.717 26.5592 187.606 26.3032 187.384 26.113C187.162 25.9228 186.866 25.7618 186.496 25.6301C186.14 25.4984 185.741 25.3741 185.297 25.257C184.838 25.1253 184.364 24.979 183.876 24.8181C183.402 24.6571 182.966 24.4523 182.566 24.2036C182.166 23.9402 181.841 23.5964 181.589 23.1721C181.338 22.7477 181.212 22.2137 181.212 21.5699C181.212 20.8384 181.419 20.2165 181.833 19.7044C182.248 19.1923 182.781 18.7973 183.432 18.5193C184.098 18.2413 184.794 18.1023 185.519 18.1023C185.978 18.1023 186.459 18.1608 186.962 18.2779C187.465 18.3803 187.946 18.5559 188.405 18.8046C188.864 19.0387 189.248 19.3533 189.559 19.7483C189.722 19.9678 189.818 20.2312 189.848 20.5384C189.877 20.8457 189.737 21.1237 189.426 21.3724C189.204 21.548 188.945 21.6284 188.649 21.6138C188.353 21.5846 188.109 21.4821 187.916 21.3066C187.665 20.9847 187.324 20.7286 186.895 20.5384C186.481 20.3482 186 20.2531 185.452 20.2531C185.23 20.2531 184.986 20.2824 184.72 20.3409C184.468 20.3848 184.246 20.4945 184.054 20.6701C183.861 20.831 183.765 21.0944 183.765 21.4602C183.765 21.7967 183.876 22.0674 184.098 22.2722C184.32 22.4624 184.616 22.6234 184.986 22.7551C185.371 22.8721 185.778 22.9892 186.207 23.1062C186.651 23.2233 187.102 23.3623 187.561 23.5232C188.02 23.6842 188.442 23.8963 188.827 24.1597C189.211 24.423 189.522 24.7669 189.759 25.1912C189.996 25.6009 190.114 26.1276 190.114 26.7714C190.114 27.5176 189.892 28.154 189.448 28.6808C189.004 29.2075 188.449 29.6099 187.783 29.8878C187.117 30.1512 186.436 30.2829 185.741 30.2829C184.868 30.2829 183.994 30.1366 183.121 29.844C182.248 29.5367 181.523 29.0026 180.945 28.2418Z" fill="#FF470B"/>
<path d="M173.34 30.0634C172.955 30.0634 172.637 29.9391 172.385 29.6903C172.134 29.427 172.008 29.1051 172.008 28.7247V19.6605C172.008 19.2801 172.134 18.9655 172.385 18.7168C172.637 18.4534 172.955 18.3218 173.34 18.3218C173.725 18.3218 174.043 18.4534 174.294 18.7168C174.546 18.9655 174.672 19.2801 174.672 19.6605V21.7236L174.516 20.2531C174.679 19.902 174.886 19.5947 175.138 19.3313C175.404 19.0533 175.7 18.8265 176.026 18.651C176.352 18.4608 176.699 18.3218 177.069 18.234C177.44 18.1462 177.81 18.1023 178.18 18.1023C178.624 18.1023 178.994 18.2267 179.29 18.4754C179.6 18.7241 179.756 19.0168 179.756 19.3533C179.756 19.8361 179.63 20.1873 179.378 20.4067C179.127 20.6116 178.853 20.714 178.557 20.714C178.276 20.714 178.017 20.6628 177.78 20.5604C177.558 20.4579 177.299 20.4067 177.003 20.4067C176.737 20.4067 176.463 20.4726 176.181 20.6043C175.915 20.7213 175.663 20.9115 175.427 21.1749C175.205 21.4382 175.02 21.7674 174.872 22.1625C174.738 22.5429 174.672 22.9965 174.672 23.5232V28.7247C174.672 29.1051 174.546 29.427 174.294 29.6903C174.043 29.9391 173.725 30.0634 173.34 30.0634Z" fill="#FF470B"/>
<path d="M164.507 30.2829C163.249 30.2829 162.154 30.0268 161.222 29.5147C160.304 28.988 159.594 28.2784 159.091 27.3859C158.602 26.4934 158.358 25.4838 158.358 24.3572C158.358 23.0404 158.624 21.9211 159.157 20.9993C159.705 20.0629 160.415 19.346 161.288 18.8485C162.162 18.351 163.087 18.1023 164.063 18.1023C164.818 18.1023 165.529 18.2559 166.195 18.5632C166.875 18.8704 167.475 19.2947 167.993 19.8361C168.511 20.3628 168.918 20.9774 169.214 21.6797C169.525 22.382 169.68 23.1282 169.68 23.9183C169.665 24.2694 169.525 24.5547 169.258 24.7742C168.992 24.9937 168.681 25.1034 168.326 25.1034H159.845L159.179 22.9087H167.327L166.838 23.3476V22.7551C166.809 22.3308 166.653 21.9503 166.372 21.6138C166.106 21.2773 165.765 21.0139 165.351 20.8237C164.951 20.6189 164.522 20.5165 164.063 20.5165C163.619 20.5165 163.205 20.575 162.82 20.692C162.435 20.8091 162.102 21.0066 161.821 21.2846C161.54 21.5626 161.318 21.9357 161.155 22.4039C160.992 22.8721 160.911 23.4647 160.911 24.1816C160.911 24.9717 161.074 25.6448 161.399 26.2007C161.74 26.7421 162.169 27.1591 162.687 27.4517C163.22 27.7297 163.782 27.8687 164.374 27.8687C164.922 27.8687 165.358 27.8248 165.684 27.737C166.01 27.6492 166.269 27.5468 166.461 27.4298C166.668 27.2981 166.853 27.1884 167.016 27.1006C167.282 26.9689 167.534 26.9031 167.771 26.9031C168.096 26.9031 168.363 27.0128 168.57 27.2323C168.792 27.4517 168.903 27.7078 168.903 28.0004C168.903 28.3954 168.696 28.7539 168.281 29.0758C167.897 29.3977 167.356 29.683 166.661 29.9317C165.965 30.1658 165.247 30.2829 164.507 30.2829Z" fill="#FF470B"/>
<path d="M152.143 18.1023C153.209 18.1023 154.015 18.3291 154.563 18.7827C155.125 19.2362 155.51 19.8434 155.717 20.6043C155.925 21.3505 156.028 22.1844 156.028 23.1062V28.7247C156.028 29.1051 155.902 29.427 155.651 29.6903C155.399 29.9391 155.081 30.0634 154.696 30.0634C154.311 30.0634 153.993 29.9391 153.742 29.6903C153.49 29.427 153.364 29.1051 153.364 28.7247V23.1062C153.364 22.6234 153.305 22.1918 153.187 21.8113C153.068 21.4163 152.854 21.1017 152.543 20.8676C152.232 20.6335 151.788 20.5165 151.211 20.5165C150.648 20.5165 150.167 20.6335 149.768 20.8676C149.368 21.1017 149.065 21.4163 148.857 21.8113C148.665 22.1918 148.569 22.6234 148.569 23.1062V28.7247C148.569 29.1051 148.443 29.427 148.191 29.6903C147.94 29.9391 147.622 30.0634 147.237 30.0634C146.852 30.0634 146.534 29.9391 146.282 29.6903C146.031 29.427 145.905 29.1051 145.905 28.7247V15.1614C145.905 14.781 146.031 14.4664 146.282 14.2177C146.534 13.9543 146.852 13.8226 147.237 13.8226C147.622 13.8226 147.94 13.9543 148.191 14.2177C148.443 14.4664 148.569 14.781 148.569 15.1614V20.6043L148.236 20.5384C148.369 20.2897 148.554 20.0263 148.791 19.7483C149.028 19.4557 149.316 19.185 149.657 18.9363C149.997 18.6876 150.374 18.49 150.789 18.3437C151.203 18.1828 151.655 18.1023 152.143 18.1023Z" fill="#FF470B"/>
<path d="M136.954 18.5412H142.216C142.571 18.5412 142.867 18.6582 143.104 18.8923C143.34 19.1264 143.459 19.419 143.459 19.7702C143.459 20.1067 143.34 20.392 143.104 20.6261C142.867 20.8456 142.571 20.9553 142.216 20.9553H136.954C136.599 20.9553 136.303 20.8383 136.066 20.6042C135.829 20.3701 135.711 20.0775 135.711 19.7263C135.711 19.3898 135.829 19.1118 136.066 18.8923C136.303 18.6582 136.599 18.5412 136.954 18.5412ZM139.33 15.7978C139.714 15.7978 140.025 15.9295 140.262 16.1928C140.514 16.4416 140.639 16.7561 140.639 17.1366V26.903C140.639 27.1078 140.676 27.2761 140.75 27.4078C140.839 27.5394 140.95 27.6346 141.083 27.6931C141.231 27.7516 141.387 27.7809 141.55 27.7809C141.727 27.7809 141.89 27.7516 142.038 27.6931C142.186 27.6199 142.356 27.5833 142.549 27.5833C142.756 27.5833 142.941 27.6784 143.104 27.8687C143.281 28.0589 143.37 28.3222 143.37 28.6587C143.37 29.0684 143.141 29.4049 142.682 29.6683C142.238 29.9317 141.757 30.0634 141.239 30.0634C140.928 30.0634 140.58 30.0414 140.195 29.9975C139.825 29.939 139.47 29.8146 139.13 29.6244C138.804 29.4196 138.53 29.1123 138.308 28.7026C138.086 28.293 137.975 27.7297 137.975 27.0127V17.1366C137.975 16.7561 138.101 16.4416 138.353 16.1928C138.619 15.9295 138.945 15.7978 139.33 15.7978Z" fill="#FF470B"/>
<path d="M134.489 24.2036C134.489 25.4033 134.215 26.4641 133.668 27.3859C133.135 28.293 132.41 29.0026 131.492 29.5147C130.589 30.0268 129.575 30.2829 128.451 30.2829C127.326 30.2829 126.305 30.0268 125.387 29.5147C124.484 29.0026 123.759 28.293 123.211 27.3859C122.679 26.4641 122.412 25.4033 122.412 24.2036C122.412 23.0038 122.679 21.9503 123.211 21.0432C123.759 20.1214 124.484 19.4045 125.387 18.8924C126.305 18.3657 127.326 18.1023 128.451 18.1023C129.575 18.1023 130.589 18.3657 131.492 18.8924C132.41 19.4045 133.135 20.1214 133.668 21.0432C134.215 21.9503 134.489 23.0038 134.489 24.2036ZM131.825 24.2036C131.825 23.4574 131.67 22.8136 131.359 22.2722C131.063 21.7162 130.656 21.2846 130.138 20.9774C129.635 20.6701 129.072 20.5165 128.451 20.5165C127.829 20.5165 127.259 20.6701 126.741 20.9774C126.238 21.2846 125.831 21.7162 125.52 22.2722C125.224 22.8136 125.076 23.4574 125.076 24.2036C125.076 24.9351 125.224 25.5789 125.52 26.1349C125.831 26.6763 126.238 27.1006 126.741 27.4078C127.259 27.7151 127.829 27.8687 128.451 27.8687C129.072 27.8687 129.635 27.7151 130.138 27.4078C130.656 27.1006 131.063 26.6763 131.359 26.1349C131.67 25.5789 131.825 24.9351 131.825 24.2036Z" fill="#FF470B"/>
<path d="M115.172 30.0634C114.787 30.0634 114.469 29.9391 114.217 29.6903C113.966 29.427 113.84 29.1051 113.84 28.7247V19.6605C113.84 19.2801 113.966 18.9655 114.217 18.7168C114.469 18.4534 114.787 18.3218 115.172 18.3218C115.557 18.3218 115.875 18.4534 116.126 18.7168C116.378 18.9655 116.504 19.2801 116.504 19.6605V21.7236L116.348 20.2531C116.511 19.902 116.718 19.5947 116.97 19.3313C117.237 19.0533 117.533 18.8265 117.858 18.651C118.184 18.4608 118.532 18.3218 118.902 18.234C119.272 18.1462 119.642 18.1023 120.012 18.1023C120.456 18.1023 120.826 18.2267 121.122 18.4754C121.432 18.7241 121.588 19.0168 121.588 19.3533C121.588 19.8361 121.462 20.1873 121.21 20.4067C120.959 20.6116 120.685 20.714 120.389 20.714C120.108 20.714 119.849 20.6628 119.612 20.5604C119.39 20.4579 119.131 20.4067 118.835 20.4067C118.569 20.4067 118.295 20.4726 118.014 20.6043C117.747 20.7213 117.496 20.9115 117.259 21.1749C117.037 21.4382 116.852 21.7674 116.704 22.1625C116.57 22.5429 116.504 22.9965 116.504 23.5232V28.7247C116.504 29.1051 116.378 29.427 116.126 29.6903C115.875 29.9391 115.557 30.0634 115.172 30.0634Z" fill="#FF470B"/>
<path d="M106.463 14.7005C107.884 14.7005 108.942 15.0297 109.638 15.6881C110.334 16.3465 110.681 17.3195 110.681 18.6071C110.681 19.2947 110.511 19.9019 110.171 20.4287C109.83 20.9408 109.327 21.3431 108.661 21.6358C107.995 21.9138 107.174 22.0528 106.197 22.0528L106.286 21.0651C106.745 21.0651 107.27 21.131 107.862 21.2627C108.454 21.3797 109.024 21.5992 109.571 21.9211C110.134 22.2283 110.593 22.6673 110.948 23.2379C111.318 23.7939 111.503 24.5108 111.503 25.3887C111.503 26.3544 111.34 27.1445 111.014 27.759C110.704 28.3735 110.289 28.849 109.771 29.1855C109.253 29.5221 108.698 29.7562 108.106 29.8878C107.514 30.0049 106.944 30.0634 106.397 30.0634H100.869C100.484 30.0634 100.158 29.9391 99.8921 29.6903C99.6405 29.427 99.5146 29.1051 99.5146 28.7246V16.0393C99.5146 15.6589 99.6405 15.3443 99.8921 15.0955C100.158 14.8322 100.484 14.7005 100.869 14.7005H106.463ZM106.064 17.2902H102.112L102.401 16.9391V20.9115L102.134 20.714H106.13C106.56 20.714 106.944 20.575 107.285 20.297C107.625 20.019 107.795 19.6166 107.795 19.0899C107.795 18.4608 107.633 18.0072 107.307 17.7292C106.996 17.4366 106.582 17.2902 106.064 17.2902ZM106.241 23.3037H102.201L102.401 23.1282V27.759L102.179 27.5395H106.397C107.078 27.5395 107.618 27.3639 108.017 27.0128C108.417 26.647 108.617 26.1056 108.617 25.3887C108.617 24.7303 108.484 24.2548 108.217 23.9621C107.951 23.6695 107.633 23.4866 107.263 23.4135C106.893 23.3403 106.552 23.3037 106.241 23.3037Z" fill="#FF470B"/>
<path d="M86.3319 14.7005C87.1015 14.7005 87.8194 14.92 88.4854 15.3589C89.1662 15.7979 89.7138 16.3904 90.1282 17.1366C90.5426 17.8828 90.7498 18.7168 90.7498 19.6386C90.7498 20.5457 90.5426 21.3724 90.1282 22.1186C89.7138 22.8648 89.1662 23.4647 88.4854 23.9183C87.8194 24.3572 87.1015 24.5767 86.3319 24.5767H82.2471L82.4691 24.1816V28.7246C82.4691 29.1051 82.3507 29.427 82.1139 29.6903C81.8771 29.9391 81.5662 30.0634 81.1814 30.0634C80.8114 30.0634 80.508 29.9391 80.2712 29.6903C80.0344 29.427 79.916 29.1051 79.916 28.7246V16.0393C79.916 15.6589 80.0418 15.3443 80.2934 15.0955C80.5598 14.8322 80.8854 14.7005 81.2702 14.7005H86.3319ZM86.3319 22.0747C86.6131 22.0747 86.8869 21.9576 87.1534 21.7235C87.4198 21.4894 87.6418 21.1895 87.8194 20.8237C87.997 20.4433 88.0858 20.0483 88.0858 19.6386C88.0858 19.2143 87.997 18.8192 87.8194 18.4534C87.6418 18.0877 87.4198 17.795 87.1534 17.5756C86.8869 17.3415 86.6131 17.2244 86.3319 17.2244H82.2027L82.4691 16.8294V22.4259L82.2249 22.0747H86.3319Z" fill="#6A6E73"/>
<path d="M76.4446 14.6346C76.785 14.6346 77.1106 14.7663 77.4214 15.0297C77.7322 15.2784 77.8877 15.6223 77.8877 16.0612C77.8877 16.1929 77.8654 16.3392 77.821 16.5001L73.4476 29.2294C73.3588 29.4928 73.196 29.6976 72.9592 29.8439C72.7372 29.9756 72.5004 30.0488 72.2487 30.0634C71.9971 30.0634 71.7455 29.9902 71.4939 29.8439C71.2571 29.6976 71.0721 29.4855 70.9389 29.2075L67.6533 21.8333L67.8531 21.9649L64.6118 29.2075C64.4786 29.4855 64.2862 29.6976 64.0346 29.8439C63.7978 29.9902 63.5536 30.0634 63.302 30.0634C63.0652 30.0488 62.8284 29.9756 62.5916 29.8439C62.3548 29.6976 62.192 29.4928 62.1032 29.2294L57.7297 16.5001C57.6853 16.3392 57.6631 16.1929 57.6631 16.0612C57.6631 15.6223 57.8185 15.2784 58.1293 15.0297C58.4549 14.7663 58.7879 14.6346 59.1283 14.6346C59.4095 14.6346 59.6685 14.7078 59.9053 14.8541C60.1569 15.0004 60.3271 15.2126 60.4159 15.4906L63.9458 26.069L63.4574 26.0471L66.6098 18.5632C66.7282 18.2998 66.8985 18.095 67.1205 17.9486C67.3425 17.7877 67.5941 17.7145 67.8753 17.7292C68.1565 17.7145 68.4081 17.7877 68.6301 17.9486C68.8521 18.095 69.0149 18.2998 69.1185 18.5632L72.0045 25.7179L71.6493 25.9374L75.1348 15.4906C75.2236 15.2126 75.3938 15.0004 75.6454 14.8541C75.897 14.7078 76.1634 14.6346 76.4446 14.6346Z" fill="#6A6E73"/>
</g>
<defs>
<clipPath id="clip0_304_994">
<rect width="190" height="37" fill="white" transform="translate(0 0.5)"/>
</clipPath>
</defs>
</svg>
