<svg width="37" height="36" viewBox="0 0 37 36" fill="none" xmlns="http://www.w3.org/2000/svg">
<path d="M18.5 15.9L20.6 18L33.05 5.55L30.95 3.45L18.5 15.9ZM3.5 33H5.6L18.5 20.1L16.4 18L3.5 30.9V33ZM21.6 21.1L15.4 14.9L25.3 5L23.8 3.5L12.1 15.2L9.95 13.05L21.35 1.65C22.1833 0.816664 23 0.399997 23.8 0.399997C24.6333 0.366664 25.4833 0.783331 26.35 1.65L27.5 2.8L29.75 0.549997C30.1167 0.183331 30.5333 -2.86102e-06 31 -2.86102e-06C31.4667 -2.86102e-06 31.8833 0.183331 32.25 0.549997L35.9 4.2C36.2667 4.56667 36.45 5 36.45 5.5C36.45 6 36.2667 6.43333 35.9 6.8L21.6 21.1ZM6.7 36H0.5V29.8L15.4 14.9L21.6 21.1L6.7 36Z" fill="#FF470B"/>
</svg>
