<svg width="41" height="40" viewBox="0 0 41 40" fill="none" xmlns="http://www.w3.org/2000/svg">
<path d="M17.7 25.35L30.7 17L17.7 8.65V25.35ZM9.5 34C8.7 34 8 33.7 7.4 33.1C6.8 32.5 6.5 31.8 6.5 31V3C6.5 2.2 6.8 1.5 7.4 0.899997C8 0.299998 8.7 -9.53674e-07 9.5 -9.53674e-07H37.5C38.3 -9.53674e-07 39 0.299998 39.6 0.899997C40.2 1.5 40.5 2.2 40.5 3V31C40.5 31.8 40.2 32.5 39.6 33.1C39 33.7 38.3 34 37.5 34H9.5ZM9.5 31H37.5V3H9.5V31ZM3.5 40C2.7 40 2 39.7 1.4 39.1C0.8 38.5 0.5 37.8 0.5 37V6H3.5V37H34.5V40H3.5ZM9.5 3V31V3Z" fill="#FF470B"/>
</svg>
