<svg width="45" height="44" viewBox="0 0 45 44" fill="none" xmlns="http://www.w3.org/2000/svg">
<path d="M14.2 35.85V27.65L20.8 31.75L14.2 35.85ZM24.5 16.75C22.9667 16.75 21.6667 16.2167 20.6 15.15C19.5333 14.0833 19 12.7833 19 11.25C19 9.71667 19.5333 8.41667 20.6 7.35C21.6667 6.28333 22.9667 5.75 24.5 5.75H26.5V7.75H24.5C23.5333 7.75 22.7 8.1 22 8.8C21.3333 9.46666 21 10.2833 21 11.25C21 12.2167 21.3333 13.05 22 13.75C22.7 14.4167 23.5333 14.75 24.5 14.75H26.5V16.75H24.5ZM30.5 16.75V14.75H32.5C33.4667 14.75 34.2833 14.4167 34.95 13.75C35.65 13.05 36 12.2167 36 11.25C36 10.2833 35.65 9.46666 34.95 8.8C34.2833 8.1 33.4667 7.75 32.5 7.75H30.5V5.75H32.5C34.0333 5.75 35.3333 6.28333 36.4 7.35C37.4667 8.41667 38 9.71667 38 11.25C38 12.7833 37.4667 14.0833 36.4 15.15C35.3333 16.2167 34.0333 16.75 32.5 16.75H30.5ZM25 12.25V10.25H32V12.25H25ZM31.15 25.5V21.5H41.5V3H15.5V21.5H12.5V3C12.5 2.16666 12.7833 1.46666 13.35 0.899999C13.95 0.299998 14.6667 -1.90735e-06 15.5 -1.90735e-06H41.5C42.3333 -1.90735e-06 43.0333 0.299998 43.6 0.899999C44.2 1.46666 44.5 2.16666 44.5 3V22.5C44.5 23.3333 44.2 24.05 43.6 24.65C43.0333 25.2167 42.3333 25.5 41.5 25.5H31.15ZM3.5 44C2.66667 44 1.95 43.7167 1.35 43.15C0.783333 42.55 0.5 41.8333 0.5 41V22.5C0.5 21.6667 0.783333 20.9667 1.35 20.4C1.95 19.8 2.66667 19.5 3.5 19.5H29.5C30.3333 19.5 31.0333 19.8 31.6 20.4C32.2 20.9667 32.5 21.6667 32.5 22.5V41C32.5 41.8333 32.2 42.55 31.6 43.15C31.0333 43.7167 30.3333 44 29.5 44H3.5ZM3.5 41H29.5V22.5H3.5V41Z" fill="#FF470B"/>
</svg>
