<svg width="41" height="24" viewBox="0 0 41 24" fill="none" xmlns="http://www.w3.org/2000/svg">
<path d="M3.5 24C2.7 24 2 23.7 1.4 23.1C0.8 22.5 0.5 21.8 0.5 21V3C0.5 2.23333 0.8 1.55 1.4 0.949997C2 0.316664 2.7 -2.86102e-06 3.5 -2.86102e-06H37.5C38.3 -2.86102e-06 39 0.316664 39.6 0.949997C40.2 1.55 40.5 2.23333 40.5 3V21C40.5 21.8 40.2 22.5 39.6 23.1C39 23.7 38.3 24 37.5 24H3.5ZM3.5 21H37.5V3H31V12H28V3H22V12H19V3H13V12H10V3H3.5V21ZM10 12H13H10ZM19 12H22H19ZM28 12H31H28Z" fill="#FF470B"/>
</svg>
